<svg width="512" height="320" viewBox="0 0 512 320" fill="none" xmlns="http://www.w3.org/2000/svg">
  <rect width="512" height="320" rx="32" fill="#111111"/>
  <rect x="40" y="60" width="280" height="180" rx="24" fill="#7A1212"/>
  <rect x="52" y="80" width="256" height="140" rx="20" fill="#991B1B"/>
  <circle cx="96" cy="120" r="14" fill="#FACC15"/>
  <circle cx="136" cy="120" r="14" fill="#FACC15"/>
  <circle cx="176" cy="120" r="14" fill="#FACC15"/>
  <rect x="96" y="162" width="160" height="10" rx="5" fill="#FDE68A" opacity="0.8"/>
  <rect x="96" y="182" width="120" height="8" rx="4" fill="#F97316" opacity="0.9"/>
  <rect x="340" y="82" width="132" height="34" rx="17" fill="#FACC15" opacity="0.14"/>
  <rect x="348" y="90" width="116" height="18" rx="9" fill="#FACC15"/>
  <rect x="340" y="132" width="132" height="70" rx="20" fill="#020617" opacity="0.9"/>
  <rect x="352" y="144" width="108" height="10" rx="5" fill="#1E293B"/>
  <rect x="352" y="164" width="64" height="10" rx="5" fill="#DC2626"/>
  <rect x="420" y="164" width="40" height="10" rx="5" fill="#15803D"/>
  <rect x="352" y="184" width="44" height="8" rx="4" fill="#4B5563"/>
  <circle cx="80" cy="44" r="4" fill="#FACC15"/>
  <circle cx="112" cy="32" r="3" fill="#DC2626"/>
  <circle cx="448" cy="44" r="4" fill="#FACC15"/>
  <circle cx="420" cy="32" r="3" fill="#22C55E"/>
  <circle cx="64" cy="268" r="3" fill="#4ADE80"/>
  <circle cx="132" cy="284" r="3" fill="#F97316"/>
  <circle cx="452" cy="276" r="3" fill="#FACC15"/>
  <circle cx="392" cy="292" r="3" fill="#38BDF8"/>
  <rect x="196" y="260" width="120" height="28" rx="14" fill="#FACC15" opacity="0.2"/>
  <rect x="204" y="266" width="104" height="16" rx="8" fill="#FACC15"/>
</svg>
